<?xml version="1.0" encoding="utf-8"?>
<!-- Generator: Adobe Illustrator 15.1.0, SVG Export Plug-In . SVG Version: 6.00 Build 0)  -->
<!DOCTYPE svg PUBLIC "-//W3C//DTD SVG 1.1//EN" "http://www.w3.org/Graphics/SVG/1.1/DTD/svg11.dtd">
<svg version="1.1" id="Layer_1" xmlns="http://www.w3.org/2000/svg" xmlns:xlink="http://www.w3.org/1999/xlink" x="0px" y="0px"
	 width="612px" height="792px" viewBox="0 0 612 792" enable-background="new 0 0 612 792" xml:space="preserve">
<path d="M449.438,195.188H295.481l-24.863-49.725c-1.913-4.781-6.694-7.65-12.431-7.65h-95.625
	c-39.206,0-71.719,32.513-71.719,71.719v219.938c0,39.206,32.513,71.719,71.719,71.719h286.875
	c39.206,0,71.719-32.513,71.719-71.719V266.906C521.156,227.7,488.644,195.188,449.438,195.188z M492.469,429.469
	c0,23.906-19.125,43.031-43.031,43.031H162.562c-23.906,0-43.031-19.125-43.031-43.031V209.531
	c0-23.906,19.125-43.031,43.031-43.031h87.019l24.863,49.725c2.869,4.781,7.65,7.65,12.431,7.65h162.562
	c23.906,0,43.031,19.125,43.031,43.031V429.469z"/>
</svg>
