<?xml version="1.0" encoding="utf-8"?>
<!-- Generator: Adobe Illustrator 15.1.0, SVG Export Plug-In . SVG Version: 6.00 Build 0)  -->
<!DOCTYPE svg PUBLIC "-//W3C//DTD SVG 1.1//EN" "http://www.w3.org/Graphics/SVG/1.1/DTD/svg11.dtd">
<svg version="1.1" id="Layer_1" xmlns="http://www.w3.org/2000/svg" xmlns:xlink="http://www.w3.org/1999/xlink" x="0px" y="0px"
	 width="612px" height="792px" viewBox="0 0 612 792" enable-background="new 0 0 612 792" xml:space="preserve">
<path d="M521.156,319.5c0-5.737-2.869-10.519-7.65-12.431l-44.943-22.95l44.943-21.994c4.781-2.869,7.65-7.65,7.65-12.431
	s-2.869-10.519-7.65-12.431L312.693,136.856c-3.824-1.913-8.606-1.913-12.431,0L99.45,237.263c-4.781,2.869-7.65,7.65-7.65,12.431
	s2.869,10.519,7.65,12.431l44.943,21.994L99.45,306.112c-4.781,2.869-7.65,7.65-7.65,12.432s2.869,10.519,7.65,12.431l44.943,21.994
	l-45.9,23.906c-4.781,2.869-7.65,7.65-7.65,12.431s2.869,10.519,7.65,12.431l200.812,100.406c1.913,0.956,3.825,1.913,6.694,1.913
	c2.869,0,4.781-0.957,6.693-1.913l200.812-100.406c4.781-2.868,7.65-7.65,7.65-12.431s-2.869-10.519-7.65-12.431l-44.943-21.994
	l44.943-21.994C518.287,330.019,521.156,325.237,521.156,319.5z M306,164.587l168.3,84.15L306,333.844l-124.312-62.156l0,0
	l-44.944-21.994L306,164.587z M474.3,389.306L306,474.412l-168.3-84.149l38.25-19.125l124.312,62.156
	c1.912,0.956,3.825,1.912,6.693,1.912c2.869,0,4.781-0.956,6.694-1.912l124.312-62.156L474.3,389.306z M430.312,341.494
	L430.312,341.494L306,403.65l-124.312-62.157l0,0L137.7,319.5l38.25-19.125l124.312,62.156c1.912,0.956,3.825,1.913,6.693,1.913
	c2.869,0,4.781-0.957,6.694-1.913l124.312-62.156l38.25,19.125L430.312,341.494z"/>
</svg>
