<?xml version="1.0" encoding="utf-8"?>
<!-- Generator: Adobe Illustrator 15.1.0, SVG Export Plug-In . SVG Version: 6.00 Build 0)  -->
<!DOCTYPE svg PUBLIC "-//W3C//DTD SVG 1.1//EN" "http://www.w3.org/Graphics/SVG/1.1/DTD/svg11.dtd">
<svg version="1.1" id="Layer_1" xmlns="http://www.w3.org/2000/svg" xmlns:xlink="http://www.w3.org/1999/xlink" x="0px" y="0px"
	 width="612px" height="792px" viewBox="0 0 612 792" enable-background="new 0 0 612 792" xml:space="preserve">
<g>
	<path d="M388.237,109.125H223.763c-39.207,0-71.719,32.513-71.719,71.719v277.312c0,39.206,32.512,71.719,71.719,71.719h164.475
		c39.206,0,71.719-32.513,71.719-71.719V180.844C459.956,141.638,427.443,109.125,388.237,109.125z M223.763,137.812h164.475
		c23.906,0,43.031,19.125,43.031,43.031v217.068H180.731V180.844C180.731,156.938,199.856,137.812,223.763,137.812z
		 M388.237,501.188H223.763c-23.906,0-43.031-19.125-43.031-43.031v-30.6h250.537v30.6
		C431.269,482.062,412.144,501.188,388.237,501.188z"/>
	<path d="M264.881,187.538h82.238c7.649,0,14.344-6.694,14.344-14.344s-6.694-14.344-14.344-14.344h-82.238
		c-7.65,0-14.344,6.694-14.344,14.344S257.231,187.538,264.881,187.538z"/>
	<circle cx="306" cy="465.807" r="19.125"/>
</g>
</svg>
