<?xml version="1.0" encoding="utf-8"?>
<!-- Generator: Adobe Illustrator 15.1.0, SVG Export Plug-In . SVG Version: 6.00 Build 0)  -->
<!DOCTYPE svg PUBLIC "-//W3C//DTD SVG 1.1//EN" "http://www.w3.org/Graphics/SVG/1.1/DTD/svg11.dtd">
<svg version="1.1"
	 id="Layer_1" xmlns:dc="http://purl.org/dc/elements/1.1/" xmlns:rdf="http://www.w3.org/1999/02/22-rdf-syntax-ns#" xmlns:cc="http://creativecommons.org/ns#"
	 xmlns="http://www.w3.org/2000/svg" xmlns:xlink="http://www.w3.org/1999/xlink" x="0px" y="0px" width="612px" height="792px"
	 viewBox="0 0 612 792" enable-background="new 0 0 612 792" xml:space="preserve">
<path d="M244.61,161.72c-14.443,0-26.298,11.854-26.298,26.298c0,12.007,8.213,22.203,19.278,25.3v212.364
	c-11.065,3.097-19.278,13.293-19.278,25.301c0,14.443,11.854,26.297,26.298,26.297c14.437,0,26.297-11.854,26.297-26.297
	c0-11.91-8.078-22.026-19.008-25.221c1.248-17.761,7.154-25.159,15.636-29.523c9.395-4.834,23.837-5.245,39.168-5.245
	c15.33,0,31.548,0.435,45.208-6.591c12.148-6.242,20.618-19.125,22.161-39.517c11.235-2.986,19.614-13.256,19.614-25.386
	c0-12.014-8.213-22.203-19.278-25.306v-15.128c11.065-3.103,19.278-13.299,19.278-25.307c0-12.014-8.213-22.203-19.278-25.306
	v-15.135c11.065-3.097,19.278-13.292,19.278-25.3c0-14.443-11.854-26.298-26.298-26.298c-11.989,0-22.16,8.176-25.281,19.217
	l-39.132,0.123v-8.238l-13.152,7.589l-13.146,7.607l13.146,7.588l13.152,7.589v-8.115l39.101-0.11
	c2.454,8.855,9.462,15.869,18.312,18.348v15.135c-11.071,3.103-19.297,13.292-19.297,25.306c0,12.008,8.226,22.204,19.297,25.307
	v15.128c-11.071,3.103-19.297,13.292-19.297,25.306c0,11.916,8.085,22.044,19.021,25.233c-1.108,16.371-6.641,23.097-14.608,27.191
	c-9.101,4.682-23.452,5.049-38.801,5.049c-15.349,0-31.714-0.343-45.576,6.787c-3.476,1.787-6.67,4.088-9.517,6.946V213.318
	c11.071-3.097,19.296-13.292,19.296-25.3C270.908,173.575,259.047,161.72,244.61,161.72z M244.61,175.741
	c6.86,0,12.265,5.416,12.265,12.277c0,6.86-5.404,12.264-12.265,12.264s-12.277-5.404-12.277-12.264
	C232.333,181.157,237.75,175.741,244.61,175.741z M367.39,175.741c6.86,0,12.276,5.416,12.276,12.277
	c0,6.86-5.416,12.264-12.276,12.264s-12.265-5.404-12.265-12.264C355.125,181.157,360.529,175.741,367.39,175.741z M151.696,198.214
	c-0.491,0.011-0.981,0.05-1.469,0.116c-2.91,0.372-5.606,1.721-7.65,3.825L34.713,310.21c-4.962,5.041-4.962,13.129-0.001,18.17
	l107.865,107.865c4.641,5.442,12.815,6.093,18.258,1.451c5.443-4.641,6.092-12.815,1.451-18.258
	c-0.415-0.487-0.866-0.943-1.349-1.363L62.252,319.39l98.685-98.875c5.166-4.947,5.343-13.146,0.395-18.312
	C158.821,199.582,155.325,198.135,151.696,198.214L151.696,198.214z M460.291,198.52c-0.398,0.002-0.797,0.022-1.193,0.061
	c-7.131,0.556-12.462,6.787-11.906,13.918c0.244,3.134,1.62,6.072,3.871,8.267l98.685,98.862l-98.685,98.685
	c-5.07,5.07-5.07,13.29,0,18.36c5.07,5.069,13.29,5.069,18.359,0l0,0l107.865-108.043c4.97-5.042,4.97-13.14,0-18.183
	L469.422,202.583c-2.065-2.208-4.839-3.625-7.839-4.002C461.153,198.539,460.723,198.519,460.291,198.52z M367.39,241.482
	c6.86,0,12.276,5.416,12.276,12.276c0,6.861-5.416,12.277-12.276,12.277s-12.265-5.416-12.265-12.277
	C355.125,246.898,360.529,241.482,367.39,241.482z M367.39,307.223c6.86,0,12.276,5.417,12.276,12.277s-5.416,12.277-12.276,12.277
	s-12.265-5.417-12.265-12.277S360.529,307.223,367.39,307.223z M244.61,438.718c6.86,0,12.265,5.403,12.265,12.265
	c0,6.86-5.404,12.276-12.265,12.276c-6.861,0-12.277-5.416-12.277-12.276C232.333,444.121,237.75,438.718,244.61,438.718z"/>
</svg>
