<?xml version="1.0" encoding="utf-8"?>
<!-- Generator: Adobe Illustrator 15.1.0, SVG Export Plug-In . SVG Version: 6.00 Build 0)  -->
<!DOCTYPE svg PUBLIC "-//W3C//DTD SVG 1.1//EN" "http://www.w3.org/Graphics/SVG/1.1/DTD/svg11.dtd">
<svg version="1.1" id="Layer_1" xmlns="http://www.w3.org/2000/svg" xmlns:xlink="http://www.w3.org/1999/xlink" x="0px" y="0px"
	 width="612px" height="792px" viewBox="0 0 612 792" enable-background="new 0 0 612 792" xml:space="preserve">
<path d="M548.709,278.726L315.384,80.208c-5.202-4.412-12.826-4.412-18.028,0L63.266,279.593c-5.84,4.972-6.554,13.744-1.581,19.583
	c2.754,3.239,6.655,4.896,10.583,4.896c3.188,0,6.4-1.096,9.001-3.315l1.836-1.581v249.033c0,7.676,6.222,13.898,13.897,13.898
	H514.08c7.676,0,13.897-6.223,13.897-13.898V297.596l2.729,2.32c5.84,4.973,14.611,4.258,19.584-1.581
	C555.263,292.47,554.549,283.698,548.709,278.726z M361.156,533.445H249.951v-162.18h111.205V533.445z M500.183,534.312H388.977
	V357.368c0-7.676-6.222-13.897-13.897-13.897H236.054c-7.676,0-13.898,6.222-13.898,13.897v176.945H110.951v-258.8l195.432-166.464
	l193.8,164.883V534.312z"/>
</svg>
