<?xml version="1.0" encoding="utf-8"?>
<!-- Generator: Adobe Illustrator 15.1.0, SVG Export Plug-In . SVG Version: 6.00 Build 0)  -->
<!DOCTYPE svg PUBLIC "-//W3C//DTD SVG 1.1//EN" "http://www.w3.org/Graphics/SVG/1.1/DTD/svg11.dtd">
<svg version="1.1"
	 id="Layer_1" xmlns:inkscape="http://www.inkscape.org/namespaces/inkscape" xmlns:sodipodi="http://sodipodi.sourceforge.net/DTD/sodipodi-0.dtd" xmlns:svg="http://www.w3.org/2000/svg" xmlns:dc="http://purl.org/dc/elements/1.1/" xmlns:rdf="http://www.w3.org/1999/02/22-rdf-syntax-ns#" xmlns:cc="http://creativecommons.org/ns#"
	 xmlns="http://www.w3.org/2000/svg" xmlns:xlink="http://www.w3.org/1999/xlink" x="0px" y="0px" width="612px" height="792px"
	 viewBox="0 0 612 792" enable-background="new 0 0 612 792" xml:space="preserve">
<g transform="translate(0,-952.36218)">
	<path d="M79.56,1063.782c-20.28,0-36.72,16.439-36.72,36.72c0,20.279,16.44,36.72,36.72,36.72h452.88
		c20.279,0,36.72-16.441,36.72-36.72c0-20.281-16.44-36.72-36.72-36.72H79.56z M79.56,1235.142c-20.28,0-36.72,16.44-36.72,36.72
		c0,20.279,16.44,36.72,36.72,36.72h452.88c20.279,0,36.72-16.44,36.72-36.72c0-20.281-16.44-36.72-36.72-36.72H79.56z
		 M79.56,1406.503c-20.28,0-36.72,16.438-36.72,36.719c0,20.279,16.44,36.721,36.72,36.721h452.88
		c20.279,0,36.72-16.441,36.72-36.721c0-20.28-16.44-36.719-36.72-36.719H79.56z"/>
</g>
</svg>
