<?xml version="1.0" encoding="utf-8"?>
<!-- Generator: Adobe Illustrator 15.1.0, SVG Export Plug-In . SVG Version: 6.00 Build 0)  -->
<!DOCTYPE svg PUBLIC "-//W3C//DTD SVG 1.1//EN" "http://www.w3.org/Graphics/SVG/1.1/DTD/svg11.dtd">
<svg version="1.1" id="Layer_1" xmlns="http://www.w3.org/2000/svg" xmlns:xlink="http://www.w3.org/1999/xlink" x="0px" y="0px"
	 width="612px" height="792px" viewBox="0 0 612 792" enable-background="new 0 0 612 792" xml:space="preserve">
<g>
	<path d="M482.906,528.919H148.219c-7.65,0-14.344-6.694-14.344-14.344c0-108.057,81.281-196.031,181.688-196.031
		S497.25,406.519,497.25,514.575C497.25,522.225,490.557,528.919,482.906,528.919z M163.519,500.231h305.044
		c-6.693-86.062-72.675-153-152.044-153C237.15,347.231,170.212,415.125,163.519,500.231z"/>
	<path d="M315.562,291.769c-49.725,0-90.844-41.119-90.844-90.844c0-49.725,41.119-90.844,90.844-90.844
		c49.725,0,90.844,41.119,90.844,90.844C406.406,250.65,365.287,291.769,315.562,291.769z M315.562,138.769
		c-34.425,0-62.156,27.731-62.156,62.156c0,34.425,27.731,62.156,62.156,62.156s62.156-27.731,62.156-62.156
		C377.719,166.5,349.987,138.769,315.562,138.769z"/>
</g>
</svg>
